<svg xmlns="http://www.w3.org/2000/svg" aria-hidden="true" width="1em" height="1em" viewBox="0 0 36 36"><path fill="#cdd" d="M3 16v-2h30v2zm0 7v-2h30v2zm0 7v-2h30v2zM3 9V7h30v2z"/><path fill="#da8" d="M35 33V1a1 1 0 00-1-1h-1a1 1 0 00-1 1H4a1 1 0 00-1-1H2a1 1 0 00-1 1v32h34zM4 4h28v29H4V4z"/><path d="M6.988 5.5A1.5 1.5 0 005.5 7v2a1.5 1.5 0 003 0 1.5 1.5 0 003 0 1.5 1.5 0 003 0 1.5 1.5 0 003 0 1.5 1.5 0 003 0V7A1.5 1.5 0 0019 5.5 1.5 1.5 0 0017.5 7a1.5 1.5 0 00-3 0 1.5 1.5 0 00-3 0 1.5 1.5 0 00-3 0 1.5 1.5 0 00-1.512-1.5zm22.024 0A1.5 1.5 0 0027.5 7v2a1.5 1.5 0 001.5 1.5A1.5 1.5 0 0030.5 9V7a1.5 1.5 0 00-1.488-1.5z" fill="#39d"/><path d="M6.988 12.5A1.5 1.5 0 005.5 14v2a1.5 1.5 0 003 0 1.5 1.5 0 003 0 1.5 1.5 0 003 0 1.5 1.5 0 003 0 1.5 1.5 0 003 0v-2a1.5 1.5 0 00-1.5-1.5 1.5 1.5 0 00-1.5 1.5 1.5 1.5 0 00-3 0 1.5 1.5 0 00-3 0 1.5 1.5 0 00-3 0 1.5 1.5 0 00-1.512-1.5zm22.024 0A1.5 1.5 0 0027.5 14v2a1.5 1.5 0 001.5 1.5 1.5 1.5 0 001.5-1.5v-2a1.5 1.5 0 00-1.488-1.5z" fill="#b13"/><path d="M6.988 19.5A1.5 1.5 0 005.5 21v2a1.5 1.5 0 003 0 1.5 1.5 0 003 0 1.5 1.5 0 003 0 1.5 1.5 0 003 0 1.5 1.5 0 003 0v-2a1.5 1.5 0 00-1.5-1.5 1.5 1.5 0 00-1.5 1.5 1.5 1.5 0 00-3 0 1.5 1.5 0 00-3 0 1.5 1.5 0 00-3 0 1.5 1.5 0 00-1.512-1.5zm22.024 0A1.5 1.5 0 0027.5 21v2a1.5 1.5 0 001.5 1.5 1.5 1.5 0 001.5-1.5v-2a1.5 1.5 0 00-1.488-1.5z" fill="#593"/><path d="M6.988 26.5A1.5 1.5 0 005.5 28v2a1.5 1.5 0 003 0 1.5 1.5 0 003 0 1.5 1.5 0 003 0 1.5 1.5 0 003 0 1.5 1.5 0 003 0v-2a1.5 1.5 0 00-1.5-1.5 1.5 1.5 0 00-1.5 1.5 1.5 1.5 0 00-3 0 1.5 1.5 0 00-3 0 1.5 1.5 0 00-3 0 1.5 1.5 0 00-1.512-1.5zm22.024 0A1.5 1.5 0 0027.5 28v2a1.5 1.5 0 001.5 1.5 1.5 1.5 0 001.5-1.5v-2a1.5 1.5 0 00-1.488-1.5z" fill="#fa3"/><path fill="#b65" d="M35 33H1a1 1 0 00-1 1v1a1 1 0 001 1h34a1 1 0 001-1v-1a1 1 0 00-1-1z"/></svg>