<svg xmlns="http://www.w3.org/2000/svg" width="16" height="16" viewBox="0 0 4.233 4.233"><path d="M.53 3.175h3.174v.265H.53v-.265zm0-.794h3.174v.265H.53V2.38zm0-.794h3.174v.265H.53v-.265zm0-.793h3.174v.264H.53V.794z" fill="#cbdcdc"/><path d="M.265 0h.264v.265h3.175V0h.265v3.704h-.265V.53H.53v3.175H.265z" fill="#dca987"/><path d="M.794 3.307V2.91h.264v.794H.794zm.529 0V2.91h.264v.794h-.264zm.53 0V2.91h.264v.794h-.265zm1.322 0V2.91h.265v.794h-.265z" fill="#fea932"/><path d="M.794.926V.529h.264v.794H.794zm.529 0V.529h.264v.794h-.264zm.53 0V.529h.264v.794h-.265zm1.322 0V.529h.265v.794h-.265z" fill="#3298dc"/><path d="M0 3.969h.265v-.265h3.704v.265h.264v.264H0z" fill="#ba6554"/><path d="M.794 2.514v-.397h.264v.793H.794zm.529 0v-.397h.264v.793h-.264zm.53 0v-.397h.264v.793h-.265zm1.322 0v-.397h.265v.793h-.265z" fill="#549832"/><path d="M.794 1.72v-.397h.264v.794H.794zm.529 0v-.397h.264v.794h-.264zm.53 0v-.397h.264v.794h-.265zm1.322 0v-.397h.265v.794h-.265z" fill="#ba1032"/></svg>